<svg id="Слой_5" data-name="Слой 5" xmlns="http://www.w3.org/2000/svg" viewBox="0 0 100 100"><defs><style>.cls-1,.cls-2{fill:none;stroke:#b9bdb4;stroke-miterlimit:10;}.cls-1{stroke-width:2px;}.cls-2{stroke-width:3px;}</style></defs><title>Монтажная область 1</title><polyline class="cls-1" points="50 60.48 50 20.04 29.67 20.04 29.67 46.65"/><rect class="cls-2" x="20.04" y="46.65" width="19.8" height="41.98"/><rect class="cls-2" x="40.78" y="60.48" width="18.81" height="28.15"/><rect class="cls-2" x="59.59" y="27.44" width="20.59" height="61.19"/><rect class="cls-2" x="26.5" y="53.85" width="0.04" height="0.6"/><rect class="cls-2" x="33.48" y="53.85" width="0.02" height="0.6"/><rect class="cls-2" x="26.52" y="60.94" width="0.04" height="0.6"/><rect class="cls-2" x="33.46" y="60.94" width="0.04" height="0.6"/><rect class="cls-2" x="26.44" y="67.93" width="0.04" height="0.6"/><rect class="cls-2" x="33.61" y="67.93" width="0.04" height="0.6"/><rect class="cls-2" x="29.3" y="80.86" width="1.26" height="6.36"/><rect class="cls-2" x="49.37" y="80.86" width="1.26" height="6.36"/><rect class="cls-2" x="69.26" y="80.86" width="1.26" height="6.36"/><rect class="cls-2" x="66.51" y="48.09" width="0.04" height="0.6"/><rect class="cls-2" x="36.52" y="33.87" width="0.04" height="0.6"/><rect class="cls-2" x="43.35" y="33.87" width="0.04" height="0.6"/><rect class="cls-2" x="36.49" y="26.87" width="0.04" height="0.6"/><rect class="cls-2" x="43.33" y="26.87" width="0.04" height="0.6"/><rect class="cls-2" x="46.44" y="67.04" width="0.04" height="0.6"/><rect class="cls-2" x="46.4" y="73.96" width="0.04" height="0.6"/><rect class="cls-2" x="53.27" y="67.04" width="0.04" height="0.6"/><rect class="cls-2" x="53.29" y="73.96" width="0.04" height="0.6"/><rect class="cls-2" x="66.51" y="54.89" width="0.04" height="0.6"/><rect class="cls-2" x="73.42" y="54.89" width="0.04" height="0.6"/><rect class="cls-2" x="73.44" y="48.09" width="0.04" height="0.6"/><rect class="cls-2" x="66.53" y="62.05" width="0.04" height="0.6"/><rect class="cls-2" x="73.46" y="62.05" width="0.04" height="0.6"/><rect class="cls-2" x="66.57" y="69.24" width="0.04" height="0.6"/><rect class="cls-2" x="73.38" y="69.24" width="0.04" height="0.6"/><rect class="cls-2" x="66.53" y="40.8" width="0.04" height="0.6"/><rect class="cls-2" x="73.44" y="40.94" width="0.04" height="0.6"/><rect class="cls-2" x="73.46" y="33.87" width="0.04" height="0.6"/><rect class="cls-2" x="66.46" y="33.87" width="0.04" height="0.6"/></svg>