<svg id="Слой_4" data-name="Слой 4" xmlns="http://www.w3.org/2000/svg" viewBox="0 0 100 100"><defs><style>.cls-1,.cls-2,.cls-3{fill:none;}.cls-1,.cls-2,.cls-3,.cls-4{stroke:#b9bdb4;stroke-miterlimit:10;}.cls-1{stroke-width:3px;}.cls-2{stroke-width:2px;}.cls-3,.cls-4{stroke-linecap:round;}.cls-4{fill:#b9bdb4;}</style></defs><title>Монтажная область 1</title><rect class="cls-1" x="24" y="30" width="44.44" height="52"/><polyline class="cls-2" points="34.89 28.56 34.89 15.78 77.89 16.33 77.89 64.11 68.44 64.11"/><polyline class="cls-3" points="67.33 29 59.33 26.33 34.89 15.78"/><rect class="cls-3" x="34.22" y="42.44" width="24.67" height="10.89"/><rect class="cls-4" x="32.11" y="66.78" width="1.67" height="1.67"/><rect class="cls-4" x="36.22" y="66.78" width="1.67" height="1.67"/><rect class="cls-4" x="40" y="66.78" width="1.67" height="1.67"/><rect class="cls-4" x="44.17" y="66.78" width="1.67" height="1.67"/><rect class="cls-4" x="48.33" y="66.78" width="1.67" height="1.67"/><rect class="cls-4" x="52.22" y="66.78" width="1.67" height="1.67"/><rect class="cls-4" x="56" y="66.78" width="1.67" height="1.67"/><rect class="cls-4" x="56" y="66.78" width="1.67" height="1.67"/><rect class="cls-4" x="60.22" y="66.78" width="1.67" height="1.67"/><rect class="cls-4" x="32.11" y="61.06" width="1.67" height="1.67"/><rect class="cls-4" x="36.22" y="61.06" width="1.67" height="1.67"/><rect class="cls-4" x="40" y="61.06" width="1.67" height="1.67"/><rect class="cls-4" x="44.17" y="61.06" width="1.67" height="1.67"/><rect class="cls-4" x="48.33" y="61.06" width="1.67" height="1.67"/><rect class="cls-4" x="52.22" y="61.06" width="1.67" height="1.67"/><rect class="cls-4" x="56" y="61.06" width="1.67" height="1.67"/><rect class="cls-4" x="56" y="61.06" width="1.67" height="1.67"/><rect class="cls-4" x="60.22" y="61.06" width="1.67" height="1.67"/></svg>